<?xml version="1.0" encoding="utf-8"?>
<!-- Generator: Adobe Illustrator 21.0.0, SVG Export Plug-In . SVG Version: 6.00 Build 0)  -->
<svg version="1.1" id="Layer_1" xmlns="http://www.w3.org/2000/svg" xmlns:xlink="http://www.w3.org/1999/xlink" x="0px" y="0px"
	 viewBox="0 0 573.9 189.8" style="enable-background:new 0 0 573.9 189.8;" xml:space="preserve">
<style type="text/css">
	.st0{fill:#002369;}
	.st1{fill:#FFFFFF;}
	.st2{font-family:'ArialNarrow';}
	.st3{font-size:100.5506px;}
</style>
<title>Asset 3truck_40</title>
<g id="Layer_2">
	<g id="Layer_1-2">
		<path class="st0" d="M492,24.5v121l81.9,0.5V97.6C574,85.4,567,74.3,556,69.1c-5.4-2.4-11.2-3.7-17-3.7V50.5c0-9.3-6-20-15-24.1
			C517.3,23.3,506.7,21.4,492,24.5z"/>
		<path class="st0" d="M62.8,0h360c34.7,0,62.8,28.1,62.8,62.8v20.4c0,34.7-28.1,62.8-62.8,62.8h-360C28.1,146,0,117.9,0,83.2V62.8
			C0,28.1,28.1,0,62.8,0z"/>
		<circle class="st0" cx="512" cy="169.3" r="20.5"/>
		<circle class="st0" cx="149" cy="169.3" r="20.5"/>
		<circle class="st0" cx="410" cy="169.3" r="20.5"/>
		<circle class="st0" cx="56" cy="169.3" r="20.5"/>
		<circle class="st0" cx="102.5" cy="169.3" r="20.5"/>
	</g>
</g>
<text transform="matrix(1 0 0 1 66.01 104.7915)" class="st1 st2 st3">TRAILER</text>
</svg>
